<svg id="Layer_1" data-name="Layer 1" xmlns="http://www.w3.org/2000/svg" width="45" height="35" viewBox="0 0 45 35"><title>Artboard 1</title><path id="logo" d="M23.33.56c.29,0,.43-.19.64-.25a4.39,4.39,0,0,1,.45-.14,6.24,6.24,0,0,1,1,0c.78.14,1.62.24,2.32.39A9.17,9.17,0,0,0,31,.39a.36.36,0,0,1,0,.19c-.19.11-.34.31-.54.42a4,4,0,0,1-1.79.58A2.51,2.51,0,0,1,28,1.52a8.28,8.28,0,0,0-1.09.09v0h0c.14.16.37.12.61.19,0,0,.3-.06.33,0s-.31.22-.38.26c-.6.33-3.1-.24-3.37.36-.27.3.22.57.09,1s-.44.45-.64.66c0,.19.26,2.15.34,2.47a2.3,2.3,0,0,1,.73.31c.14.13.12.33.39.36C29.11,5.26,38.9,4,43.5,4.78l-.9.78c-6.12-.4-13.84.5-19.06,3.18-.84.85-2.47,4.12-3.29,5.34A51.93,51.93,0,0,1,17,18.38c.13.11.13.22.35.24a39,39,0,0,0,2.95-3.68c1.08-.57,4.28-.7,5.7-.45v.09l-1.12.89c-.3.07-.78-.06-1,.07s.09.85,0,1c-.9-.1-3.57.21-4.46,1.28a1.25,1.25,0,0,0,0,1.33l.15.11c.4.5.71.93,1.07,1.45A13.37,13.37,0,0,1,21.94,23c.14.34.44,1.48.76,1.59.1.05.21,0,.34,0v.08s.09.09.06.12c-.18,0-.34.06-.35.11s0,.43.16.43c.42,0,1-.18,1.15-.47,0,0,0,0,0-.11s0-.3-.23-.33a4.07,4.07,0,0,1-.56.32s-.06-.18-.06-.22a1.8,1.8,0,0,0,.55-.38c0-1.75-.39-4.33-1.82-5.5-.17-.13-.35-.27-.55-.44a.73.73,0,0,1,0-1,6.91,6.91,0,0,1,2.95-.28,11.6,11.6,0,0,1,6.74,2.6,4.5,4.5,0,0,0,1.76.81c2.5.7,6.77.06,9.51.17,0,0,0,0,0,.08-.06.33.07,2.47,0,2.4-1-.95-3.3,0-4.79-.09-2.06.07-4-1.86-5.63-1.87-.11.13-.21.1-.22.33a24.34,24.34,0,0,0,0,3.81c.44.22,1.23.15,1.51.53s.08.61.16,1a3,3,0,0,1,1.06.8,6.09,6.09,0,0,1,.15,2,4.67,4.67,0,0,1,1.06.67c.11.15.06.35.15.52s.19.15.27.23c.28,0,.57,0,.91,0l1,1.67a.21.21,0,0,1-.15.1c-.22.16-.52,0-.67-.08s-.31-.06-.48-.14c-.33-.16-.46-.54-.91-.61l.06,1.06c.19.09.64.1.79.19L37.38,35a.55.55,0,0,1-.21,0c-.19.1-.76-.2-.91-.28s-.37-.47-.6-.69a2,2,0,0,1-1.21-1.14,4.46,4.46,0,0,1-.25-.94,16.94,16.94,0,0,0-.57-2c0-.77-1.81-2-2.3-2.14C27,27.32,26,25.3,25.42,24.24a.42.42,0,0,0-.21,0c0,.19-.31.53-.58.77a3.15,3.15,0,0,1,.37.81c.21.45.85.9.56,1.54-.18.47-.8.81-1.26,1.14a.6.6,0,0,1-.5,0,2.55,2.55,0,0,1-.36-.74c0-.13-.05-.26-.06-.38a10.56,10.56,0,0,0-.45-1.15c-.11-.22,0-.42-.3-.5-.1-.06-.27,0-.39-.08A2.83,2.83,0,0,1,21,24.74c-3.22.2-4.82-.19-6-.7-.12.24-.26.56-.52.67s-.6,0-.69.19.07.52,0,.78-.19.28-.34.41a4.87,4.87,0,0,1-1.33-.22c-.51-.11-.73.28-1.18.14a3.93,3.93,0,0,1-1-.56c-.09-.05-.15-.19-.24-.24A14,14,0,0,0,8,24.37c-1.18-.46-2.44-.75-3.63-1.16a11.69,11.69,0,0,1-1.61-.53,1.31,1.31,0,0,1-.42-.86c0-.1.09-.24.12-.36s.18-.18.27-.22.49,0,.76-.06c1.84,0,4.68.18,6.78,0,.08-.1.16-.08.19-.25s-.18-.4-.25-.52c-.93-1.38-.36-3.86.27-5.44.23-.58.53-1,.35-1.59s-.73-.5-1.23.12a2.72,2.72,0,0,1-1.72,2.1c-.1.14-.06.34-.12.51a1.3,1.3,0,0,1-1.18.94A4.2,4.2,0,0,0,7,15.72c-.11,0-.22-.12-.3-.09-.35.5-.33.86-.73,1.26a1.56,1.56,0,0,1-.63-1.52C6,13.26,7,11.09,7.77,8.88c.06-.12-.15-.39-.07-.51A5.58,5.58,0,0,1,10,8a4.78,4.78,0,0,1,2.26.8c.27.1.93.85,1,.8l.21-.3A8.58,8.58,0,0,0,11.73,8C6.82,5.2,1.78,6.31,2.66,6.34L1.5,5.28A17.31,17.31,0,0,1,11.78,7a11.83,11.83,0,0,1,3.84,3.49c.3-.76.92-.91.87-1.11a2.57,2.57,0,0,0-.27-1.09c-.16-.3-.71-.38-.91-.66s0-.3-.09-.5c-.16-.63-.34-1,0-1.56A1.61,1.61,0,0,1,16.19,5h5L20,7a5.47,5.47,0,0,1,2.31.65c.08-.13.21-.56.32-.63s.15-.08.18-.16a7.85,7.85,0,0,0-.43-2.37A1,1,0,0,0,22,4c-.19-.1-.65-.22-.76-.38S21,3.3,21,3.12s-.3-.53-.43-.81a1.49,1.49,0,0,1-.06-.89c0-.06.13-.12.15-.17s.05-.2.12-.31C21.17.28,22.58,0,23.79,0,23.89.29,23.4.25,23.33.56Zm-1.15.6a1.44,1.44,0,0,0-1,.56A1.11,1.11,0,0,0,21.33,3c.22.66,1.56.82,2.13.42.16-.06.19-.18.3-.28,0-.5-.51-.87-.25-1.39.09-.16.32-.24.48-.34s.67-.17.77-.29c-1.52-.13-1.84.15-2.28.58-.13.11-.09.26-.32.3a1,1,0,0,1-.07-.42C22.06,1.5,22.18,1.28,22.18,1.16ZM40.55,6C35,5.94,28.83,6.77,23.83,9.13c0,0-.16.27-.16.31A24.09,24.09,0,0,1,34.8,8.2,11.63,11.63,0,0,1,36.72,7a13.75,13.75,0,0,1,2.67,0Zm-21.91.37a.85.85,0,0,0,0-.25l-.09-.06c-.36,0-.92-.11-1.27.06-.06,0-.11.11-.15.13s-.22,0-.27.14,0,.35-.06.58c0,.07-.11.14-.12.2-.09.27,0,.59-.12.83a.26.26,0,0,0,0,.24c.07.25.17.51.24.73v.62c-.28.19-1,.79-.9,1.16-.07.16-.24.49-.13.64s.59.49.73.7a2.63,2.63,0,0,1,.37,1c0,.08-.08.29,0,.42,1.77,1.08.06,2.1-.34,3.24,0,0,.35.11.4.09.75-1.43,1.79-2.65,2.6-4,.07-.11,0-.21.06-.35s.1-.22.12-.31c.1-.35,0-.85.16-1.25a5.1,5.1,0,0,1,.33-.81c.07-.11.18-.11.21-.3s-.4-.67,0-.92a16.16,16.16,0,0,1,1.54-.55c.26-.11.51,0,.6-.31a.26.26,0,0,1,0-.16,7.53,7.53,0,0,0-2.68-.67c-.33.41-1.07,1.54-1.73,1.55l-.06,0c-.05-.14-.12-.16-.12-.35.15-.09.36-.16.51-.26a2.07,2.07,0,0,0,.52-1.08c-.1-.07-.17-.21-.28-.27s-.2-.06-.3-.09V6.61s0,0,0-.06.11-.13.3-.14Zm-1.33,0s0,0-.06,0,0,.11,0,.17a.39.39,0,0,0,.06.11.54.54,0,0,0,.42,0l.1,0c0-.15,0-.18-.15-.22A.87.87,0,0,0,17.31,6.39ZM9.92,7.55a12.47,12.47,0,0,0-5.85-.88v0H4l.75,1a9.13,9.13,0,0,1,2.6.32A5.81,5.81,0,0,1,9.92,7.55Zm13.77-.81c-.28.16-.55.15-.87.34a.51.51,0,0,0-.13.67c0,.11,0,.25.1.27.5-.23,1.18-.43,1.82-.72A1,1,0,0,0,23.69,6.74Zm-5.77.73c0,.07,0,0-.07.08s0,.1,0,.17.07.08.12.14.12-.08.21-.14,0-.16-.12-.25ZM33.1,8.69C30.4,8.05,24,9.4,23.28,10a11.5,11.5,0,0,0-1.06,1.71A22.76,22.76,0,0,1,29.73,11l.05,0C30.58,10.38,32.27,9.24,33.1,8.69Zm-15.67.5c-.05.07-.17.11-.21.19a3.73,3.73,0,0,0-.18,1.5.54.54,0,0,0,.06.25.32.32,0,0,0,.18-.05c0-.22-.06-.45,0-.7,0-.08,0-.24.06-.36s.13-.18.15-.25.05-.44.09-.55A.43.43,0,0,0,17.43,9.19ZM19,9.91,19,10l-.09,0c0,.17-.1.26,0,.39s.28.1.39,0a1.14,1.14,0,0,0-.06-.47Zm10.33,1.56c-1.45-.18-6.13,0-7.4.84-.31.46-1.52,2.11-1.35,2.21-.55-.38,4.63-.9,5.8-.42C27.58,13,29.43,11.6,29.37,11.47Zm-12,.88a.38.38,0,0,1-.12.09c0,.6.49.37.94.55.17.07.21.26.33.36l.06,0c.2-.22,0-.4-.09-.62-.47-.11-.77-.06-1-.42ZM5.49,19.66a1.51,1.51,0,0,0-1.37.94l5.24,0A3.4,3.4,0,0,0,9,19.72C7.77,19.71,6.67,19.66,5.49,19.66ZM5.92,22a.61.61,0,0,0-.21.53c.2.06.4.19.58.25a40.23,40.23,0,0,1,4.27,1.5,2.48,2.48,0,0,1,.27,0,5,5,0,0,1,.57.27c.24.15.23.38.64.4a.45.45,0,0,1,.21-.09c.11-.18.27-.28.21-.56a15.15,15.15,0,0,0-1.87-.69c-1.09-.38-2.28-.85-3.37-1.25C6.78,22.21,6.35,22.15,5.92,22Zm18.65,1a1.57,1.57,0,0,0-.36,1.62s.13.13.15.15a1.26,1.26,0,0,0,.52-1.63C24.73,23,24.76,23,24.57,23Zm-3.65.89a1.8,1.8,0,0,0,1.47,1.4.82.82,0,0,0,0-.51c-.05-.12-.19-.21-.27-.31L22,24.29a1.43,1.43,0,0,0-.76-.51C21.12,23.76,21,23.85,20.92,23.87Zm2.54,1.69c-.19.11-.35,0-.39.26.12.15.11.32.21.5a8,8,0,0,1,.35.94c.13.36.09.8.46.91,0,0,.11,0,.19,0,.32-.27,1.28-.75,1-1.38-.11-.32-.4-.63-.54-.94s-.15-.54-.44-.79A1.69,1.69,0,0,1,23.46,25.56ZM8.82,10.48a.54.54,0,1,0,.61.53A.57.57,0,0,0,8.82,10.48Z"/></svg>