<svg id="Layer_1" data-name="Layer 1" xmlns="http://www.w3.org/2000/svg" viewBox="0 0 59.21 14.67"><title>logo21</title><g id="v6"><g id="Home-v6---1"><path d="M52.4,0.33h-5V15h5a7.11,7.11,0,0,0,7.52-7.33A7.14,7.14,0,0,0,52.4.33Zm0,13H49.21V2H52.4A5.37,5.37,0,0,1,58,7.67,5.4,5.4,0,0,1,52.4,13.37Z" transform="translate(-0.72 -0.33)"/><rect x="17.84" width="1.83" height="14.67"/><polygon points="37.41 11.46 28.97 0 27.1 0 27.1 14.67 28.92 14.67 28.92 2.97 37.48 14.67 39.24 14.67 39.24 0 37.41 0 37.41 11.46"/><path d="M8.79,7.43a3.34,3.34,0,0,0,2.57-3.37c0-2.2-1.56-3.74-4.11-3.74H0.72V15H7.4c2.68,0,4.25-1.61,4.25-4A3.66,3.66,0,0,0,8.79,7.43ZM2.54,2h4.4A2.31,2.31,0,0,1,9.47,4.33,2.28,2.28,0,0,1,6.94,6.68H2.54V2ZM7,13.37H2.54V8.31H7a2.49,2.49,0,0,1,2.73,2.53A2.43,2.43,0,0,1,7,13.37Z" transform="translate(-0.72 -0.33)"/></g></g></svg>