<svg width="161" height="114" xmlns="http://www.w3.org/2000/svg"><g fill="none" fill-rule="evenodd"><path d="M56.978 100.132c-9.073 0-11.614-11.267-11.614-14.719 0-3.315 2.526-14.135 11.42-14.135 1.729 0 3.017.434 4.016 1.113a6.682 6.682 0 0 0-2.92-.657c-5.882 0-7.966 7.51-7.966 13.938 0 6.461 2.104 13.999 8.032 13.999 1.296 0 2.43-.352 3.426-.946-1.068.802-2.492 1.407-4.394 1.407zM37.297 18.255c1.536 0 7.285.535 7.285 7.407V47.11h-3.607V27.795c0-2.038.736-8.243-5.166-8.243-1.703 0-3.206.594-4.511 1.574 1.456-1.576 3.406-2.871 5.999-2.871zm28.29 58.232v-4.498h3.597v29.659c0 3.068-.888 5.516-1.955 7.404-1.061 1.541-2.51 2.8-4.501 3.042-.521.065-.985.109-1.42.145l.932-.502c2.295-1.511 3.347-4.57 3.347-10.41v-7.403h-1.519c1.023-2.45 1.519-5.397 1.519-8.252 0-2.71-.458-5.497-1.392-7.862h1.26c.132 0 .132-1.323.132-1.323zm-11.516 36.58s1.194.346 1.7.447c.505.102 2.013.4 2.013.4-.57.038-1.159.059-1.777.059-2.876 0-5.101-.41-6.678-.84v-2.096c1.481.751 3.071 1.681 4.742 2.03zM40.093 64.27v1.941H35.34v-3.23l4.752 1.29zm76.053-46.404l.047 1.303h-5.144v-1.386l5.097.083zM54.308 29.352c0 8.707 3.45 18.01 13.127 18.01 1.996 0 3.192-.23 4.292-.512v.06c-1.951.549-3.457.91-6.29.91-8.929 0-15.19-5.571-15.19-15.688 0-8.08 4.232-12.663 9.93-13.662-4.622 1.211-5.743 6.15-5.743 8.035l-.126 1.522v1.325zm58.62 42.841v-1.388l4.968.085.045 1.303h-5.013zM25.457 58.98v40.317l2.174.412v.423h-5.783l.004-41.985 3.605.833zm13.41 13.009v27.304l2.19.416v.423h-5.789V71.99h3.6zm-13.41-37.204v11.488l2.177.414v.422h-5.782V5.156l3.606.85v21.24h1.513c-.998 2.492-1.513 5.21-1.513 7.54zm107.367-14.233c6.328.47 8.61 7.015 8.61 12.555 0 7.342-3.184 11.235-7.799 11.922 3.313-.88 4.165-4.252 4.165-11.184 0-8-1.14-12.81-4.976-13.293zM122.45 33.558c0 3.265.022 12.664 7.566 14.113-7.095-.728-11.934-5.296-11.934-14.31 0-9.13 5.004-14.11 11.908-14.936-7.516 1.572-7.54 11.63-7.54 15.133zm-58.587-13.2c5.037.518 8.372 3.298 8.372 9.662l-11.994-.025h-1.97v-.891l10.608-.125v-.483c0-4.566-1.34-7.443-5.016-8.138zM111.85 98.7c1.113 1.131 2.728 1.686 4.934 1.686.65 0 1.145-.038 1.585-.088v.454c-.872.09-1.595.093-2.491.093-3.16 0-5.9-.693-7.18-1.777-.78-.661-2.426-1.95-2.496-4.648V72.193H100.7V70.07h5.502V59.754l3.966.816v31.312c-.038 2.218-.086 5.015 1.682 6.818zm38.48-72.426h1.528c-.997 1.997-1.528 4.553-1.528 7.603v13.232h-3.604V18.967l3.604.837v6.47zm3.865-3.36c1.207-1.893 3.256-4.243 6.14-4.84v2.795h-.032c-2.469 0-4.513.718-6.108 2.044zm-49.743 18.482V19.169h-5.5v-2.123h5.5V6.73l3.97.815v31.316c-.04 2.216-.088 5.014 1.68 6.816 1.112 1.132 2.726 1.685 4.932 1.685.652 0 1.146-.036 1.587-.085v.453c-.872.088-1.595.09-2.491.09-3.16 0-5.9-.69-7.179-1.775-.783-.662-2.427-1.948-2.499-4.65zm-7.887-22.187L85.83 31.491l12.364 15.863h-4.18s-7.768-10.337-8.545-11.349c-.78-1.013-1.764-.678-1.764-.678v-4.956L93.44 19.21h3.125zm-18.148 68.6V99.29l2.201.418v.423h-5.804V58.148l3.603.832v21.288h1.512c-.997 2.494-1.512 5.21-1.512 7.54zm-.96-40.456V7.873l3.603.836V47.354h-3.603zm12.796 23.925c1.54 0 7.286.535 7.286 7.409v21.445H93.94V80.82c0-2.04.733-8.244-5.17-8.244-1.72 0-3.235.607-4.544 1.601 1.455-1.59 3.417-2.898 6.026-2.898z" fill="#000"/><path fill="#FFD421" d="M0 0v100.132h7.063l-.01-98.469z"/></g></svg>