<svg width="76" height="25" fill="none" xmlns="http://www.w3.org/2000/svg"><path d="M3.64 6.4a3.06 3.06 0 003.04-3.04A3.06 3.06 0 003.64.32 3.06 3.06 0 00.6 3.36 3.06 3.06 0 003.64 6.4zM6.04 24V8h-4.8v16h4.8zm10.249 0V12.32h3.52V8h-3.52V2.24h-4.8V8h-2.88v4.32h2.88V24h4.8zm21.108-6.56s.16-.864.16-1.6c0-4.576-3.232-8.16-7.648-8.16-4.223 0-8.191 3.776-8.191 8.32 0 4.576 3.584 8.32 8.192 8.32 2.815 0 5.472-1.216 6.943-2.816l-3.328-3.136c-.64.672-1.951 1.376-3.263 1.376-1.825 0-3.2-1.184-3.489-2.304h10.625zm-10.463-3.232c.415-1.088 1.471-2.016 2.944-2.016a2.68 2.68 0 012.623 2.016h-5.567zM45.883 24V.32h-4.8V24h4.8zm9.281 0V.32h-4.8V24h4.8zm20.321 0V8h-4.8v1.152h-.064c-1.152-.896-2.496-1.472-4.096-1.472-4.64 0-8 3.712-8 8.32 0 4.608 3.36 8.32 8 8.32 1.6 0 2.944-.576 4.096-1.472h.064V24h4.8zm-8.48-4.32c-2.048 0-3.68-1.536-3.68-3.68s1.632-3.68 3.68-3.68 3.68 1.536 3.68 3.68-1.632 3.68-3.68 3.68z" fill="#0006CC"/></svg>
