<svg id="Layer_1" data-name="Layer 1" xmlns="http://www.w3.org/2000/svg" width="22" height="35" viewBox="0 0 22 35"><title>Artboard 1</title><path d="M0,27.87v1.56h.5a23.75,23.75,0,0,1,8.37,1.49V18.35a4.82,4.82,0,0,1,2.17-4.45,5,5,0,0,1,2.18,4.45l0,14.75a19,19,0,0,1,2.92,2.4l0-17.21a8.15,8.15,0,0,0-4.43-7.46,5.67,5.67,0,0,0-.66-.32,6.49,6.49,0,0,0-.66.32A8.19,8.19,0,0,0,6,18.29v9.58h-3V18.49C2.92,10.72,6.37,6.61,11,4c4.34,2.59,8.08,6.7,8.08,14.47v9.38H22V18.31C22,9.09,17.12,4,11.52.78A4.86,4.86,0,0,0,11,.5a5.67,5.67,0,0,0-.52.28C5.09,3.79,0,9.09,0,18.31Z" fill="#b71234"/></svg>